<?xml version="1.0" standalone="no"?><!DOCTYPE svg PUBLIC "-//W3C//DTD SVG 1.1//EN" "http://www.w3.org/Graphics/SVG/1.1/DTD/svg11.dtd"><svg t="1522978664006" class="icon" style="" viewBox="0 0 1024 1024" version="1.1" xmlns="http://www.w3.org/2000/svg" p-id="1207" xmlns:xlink="http://www.w3.org/1999/xlink" width="200" height="200"><defs><style type="text/css"></style></defs><path d="M796.1 368.8L746 242.6c-25.2-57.3-55.3-76.3-113.4-76.3H368.1c-58 0-100.8 38.2-113.4 79.9l-30.1 123.6c-49.5 11.4-87 59.3-87 116.3v218.1c0 12.4 10 22.4 22.4 22.4h72.2v58.1c0 26.2 21.4 47.6 47.6 47.6 26.2 0 47.6-21.4 47.6-47.6v-58.1h371.1v58.1c0 26.2 21.4 47.6 47.6 47.6 26.2 0 47.6-21.4 47.6-47.6v-58.1h71.2c12.9 0 23.4-10.5 23.4-23.4V486.1c0-59-40.1-108.1-92.2-117.3zM399.2 229.7H607c45.6 0 69.3 15 89.1 60l30.7 77.4H291.9l18.2-74.6c9.9-32.8 43.5-62.8 89.1-62.8z m-30 312.7c-4.3 22.8-22.9 41.4-45.7 45.7-41 7.8-76.2-27.5-68.4-68.4 4.3-22.8 22.9-41.4 45.7-45.7 40.9-7.8 76.2 27.4 68.4 68.4z m422.9 0c-4.3 22.8-22.9 41.4-45.7 45.7-41 7.8-76.2-27.5-68.4-68.4 4.3-22.8 22.9-41.4 45.7-45.7 40.9-7.8 76.1 27.4 68.4 68.4z" fill="#1B8AE0" p-id="1208"></path></svg>