<?xml version="1.0" standalone="no"?><!DOCTYPE svg PUBLIC "-//W3C//DTD SVG 1.1//EN" "http://www.w3.org/Graphics/SVG/1.1/DTD/svg11.dtd"><svg t="1522982397011" class="icon" style="" viewBox="0 0 1024 1024" version="1.1" xmlns="http://www.w3.org/2000/svg" p-id="2010" xmlns:xlink="http://www.w3.org/1999/xlink" width="200" height="200"><defs><style type="text/css"></style></defs><path d="M512 57C260.71 57 57 260.71 57 512s203.71 455 455 455 455-203.71 455-455S763.29 57 512 57z m0 823.49c-203.51 0-368.49-165-368.49-368.49S308.49 143.51 512 143.51 880.49 308.49 880.49 512 715.51 880.49 512 880.49z" fill="#C5E3FF" p-id="2011"></path><path d="M512 979.5A467.62 467.62 0 0 1 330 81.24a467.62 467.62 0 0 1 364 861.52 464.59 464.59 0 0 1-182 36.74z m0-910a442.62 442.62 0 0 0-172.24 850.23 442.62 442.62 0 0 0 344.48-815.46A439.73 439.73 0 0 0 512 69.5z m0 823.5a379.84 379.84 0 1 1 148.3-30A378.62 378.62 0 0 1 512 893z m0-737a356 356 0 1 0 251.72 104.28A353.66 353.66 0 0 0 512 156z" fill="#3D9FF9" p-id="2012"></path><path d="M512 893a379.84 379.84 0 1 1 148.3-30A378.62 378.62 0 0 1 512 893z m0-737a356 356 0 1 0 251.72 104.28A353.66 353.66 0 0 0 512 156z" fill="#3D9FF9" p-id="2013"></path><path d="M683.83 533.61h-178.6a12.5 12.5 0 0 1 0-25h178.6a12.5 12.5 0 1 1 0 25z" fill="#3D9FF9" p-id="2014"></path><path d="M505.23 533.61a12.5 12.5 0 0 1-12.5-12.5v-178.6a12.5 12.5 0 0 1 25 0v178.6a12.5 12.5 0 0 1-12.5 12.5zM512 262.9a12.5 12.5 0 0 1-12.5-12.5V143.51a12.5 12.5 0 0 1 25 0V250.4a12.5 12.5 0 0 1-12.5 12.5z" fill="#3D9FF9" p-id="2015"></path><path d="M778.61 266.27l-75.59 75.58" fill="#C5E3FF" p-id="2016"></path><path d="M703 354.35a12.5 12.5 0 0 1-8.82-21.35l75.58-75.58a12.5 12.5 0 1 1 17.68 17.68l-75.58 75.58a12.46 12.46 0 0 1-8.86 3.67zM868.17 516.09H761.28a12.5 12.5 0 0 1 0-25h106.89a12.5 12.5 0 0 1 0 25zM524.94 876.17a12.5 12.5 0 0 1-12.5-12.5v-106.9a12.5 12.5 0 0 1 25 0v106.9a12.5 12.5 0 0 1-12.5 12.5z" fill="#3D9FF9" p-id="2017"></path><path d="M791.54 740.91l-75.58-75.58" fill="#C5E3FF" p-id="2018"></path><path d="M791.54 753.41a12.46 12.46 0 0 1-8.84-3.66l-75.58-75.58a12.5 12.5 0 0 1 17.68-17.68l75.58 75.58a12.5 12.5 0 0 1-8.84 21.34zM881.11 516.09H774.22a12.5 12.5 0 0 1 0-25h106.89a12.5 12.5 0 0 1 0 25z" fill="#3D9FF9" p-id="2019"></path><path d="M522.64 863.67v-106.9" fill="#C5E3FF" p-id="2020"></path><path d="M522.64 876.17a12.5 12.5 0 0 1-12.5-12.5v-106.9a12.5 12.5 0 0 1 25 0v106.9a12.5 12.5 0 0 1-12.5 12.5z" fill="#3D9FF9" p-id="2021"></path><path d="M256.03 740.91l75.58-75.58" fill="#C5E3FF" p-id="2022"></path><path d="M256 753.41a12.5 12.5 0 0 1-8.84-21.34l75.58-75.58a12.5 12.5 0 1 1 17.68 17.68l-75.58 75.58a12.46 12.46 0 0 1-8.84 3.66z" fill="#3D9FF9" p-id="2023"></path><path d="M166.46 503.59h106.89" fill="#C5E3FF" p-id="2024"></path><path d="M273.35 516.09H166.46a12.5 12.5 0 0 1 0-25h106.89a12.5 12.5 0 0 1 0 25z" fill="#3D9FF9" p-id="2025"></path><path d="M256.03 246.94l75.58 79.78" fill="#C5E3FF" p-id="2026"></path><path d="M331.61 339.22a12.46 12.46 0 0 1-9.08-3.9L247 255.53a12.5 12.5 0 0 1 18.15-17.19l75.58 79.79a12.5 12.5 0 0 1-9.07 21.1z" fill="#3D9FF9" p-id="2027"></path></svg>