<?xml version="1.0" standalone="no"?><!DOCTYPE svg PUBLIC "-//W3C//DTD SVG 1.1//EN" "http://www.w3.org/Graphics/SVG/1.1/DTD/svg11.dtd"><svg t="1525254170191" class="icon" style="" viewBox="0 0 1024 1024" version="1.1" xmlns="http://www.w3.org/2000/svg" p-id="2720" xmlns:xlink="http://www.w3.org/1999/xlink" width="30" height="30"><defs><style type="text/css"></style></defs><path d="M945.4 485.8h-53.9c-12.9-189-164.4-340.4-353.3-353.3v-42c0-14.4-11.8-26.2-26.2-26.2-14.4 0-26.2 11.8-26.2 26.2v42c-188.9 12.9-340.4 164.4-353.3 353.3H78.6c-14.4 0-26.2 11.8-26.2 26.2s11.8 26.2 26.2 26.2h53.9c12.9 188.9 164.4 340.4 353.3 353.3v42c0 14.4 11.8 26.2 26.2 26.2 14.4 0 26.2-11.8 26.2-26.2v-42c188.9-12.9 340.4-164.4 353.3-353.3h53.9c14.4 0 26.2-11.8 26.2-26.2s-11.8-26.2-26.2-26.2zM538.2 838.9V671.1c0-14.4-11.8-26.2-26.2-26.2-14.4 0-26.2 11.8-26.2 26.2v167.8c-160-12.7-287.9-140.7-300.7-300.7h156c14.4 0 26.2-11.8 26.2-26.2s-11.8-26.2-26.2-26.2h-156c12.7-160 140.7-287.9 300.7-300.7v167.8c0 14.4 11.8 26.2 26.2 26.2 14.4 0 26.2-11.8 26.2-26.2V185.1c160 12.7 287.9 140.7 300.7 300.7H683c-14.4 0-26.2 11.8-26.2 26.2s11.8 26.2 26.2 26.2h156c-12.8 160-140.8 288-300.8 300.7z" fill="#F33650" p-id="2721"></path></svg>